<mxfile host="Electron" modified="2023-12-12T11:56:34.691Z" agent="Mozilla/5.0 (Windows NT 10.0; Win64; x64) AppleWebKit/537.36 (KHTML, like Gecko) draw.io/22.1.2 Chrome/114.0.5735.289 Electron/25.9.4 Safari/537.36" etag="ycuPqVHAYSU3ROKpTOwZ" version="22.1.2" type="device">
  <diagram id="C5RBs43oDa-KdzZeNtuy" name="Page-1">
    <mxGraphModel dx="1050" dy="621" grid="1" gridSize="10" guides="1" tooltips="1" connect="1" arrows="1" fold="1" page="1" pageScale="1" pageWidth="827" pageHeight="1169" background="none" math="0" shadow="0">
      <root>
        <mxCell id="WIyWlLk6GJQsqaUBKTNV-0" />
        <mxCell id="WIyWlLk6GJQsqaUBKTNV-1" parent="WIyWlLk6GJQsqaUBKTNV-0" />
        <mxCell id="bEcV7l3nRryRENPBC0jb-10" style="edgeStyle=orthogonalEdgeStyle;rounded=0;orthogonalLoop=1;jettySize=auto;html=1;entryX=0;entryY=0.5;entryDx=0;entryDy=0;endArrow=none;endFill=0;labelBackgroundColor=none;fontColor=default;" parent="WIyWlLk6GJQsqaUBKTNV-1" source="b35trlS7HM2n4KFwWIdp-0" target="b35trlS7HM2n4KFwWIdp-7" edge="1">
          <mxGeometry relative="1" as="geometry" />
        </mxCell>
        <mxCell id="bEcV7l3nRryRENPBC0jb-12" value="logger" style="edgeLabel;html=1;align=center;verticalAlign=middle;resizable=0;points=[];labelBackgroundColor=none;rounded=0;" parent="bEcV7l3nRryRENPBC0jb-10" vertex="1" connectable="0">
          <mxGeometry x="-0.7659" y="2" relative="1" as="geometry">
            <mxPoint x="-4" y="14" as="offset" />
          </mxGeometry>
        </mxCell>
        <mxCell id="b35trlS7HM2n4KFwWIdp-0" value="Logger" style="swimlane;fontStyle=1;align=center;verticalAlign=top;childLayout=stackLayout;horizontal=1;startSize=26;horizontalStack=0;resizeParent=1;resizeParentMax=0;resizeLast=0;collapsible=1;marginBottom=0;whiteSpace=wrap;html=1;labelBackgroundColor=none;rounded=0;" parent="WIyWlLk6GJQsqaUBKTNV-1" vertex="1">
          <mxGeometry x="40" y="320" width="220" height="120" as="geometry" />
        </mxCell>
        <mxCell id="b35trlS7HM2n4KFwWIdp-1" value="+ log_dict: dict" style="text;strokeColor=none;fillColor=none;align=left;verticalAlign=top;spacingLeft=4;spacingRight=4;overflow=hidden;rotatable=0;points=[[0,0.5],[1,0.5]];portConstraint=eastwest;whiteSpace=wrap;html=1;labelBackgroundColor=none;rounded=0;" parent="b35trlS7HM2n4KFwWIdp-0" vertex="1">
          <mxGeometry y="26" width="220" height="24" as="geometry" />
        </mxCell>
        <mxCell id="b35trlS7HM2n4KFwWIdp-2" value="" style="line;strokeWidth=1;fillColor=none;align=left;verticalAlign=middle;spacingTop=-1;spacingLeft=3;spacingRight=3;rotatable=0;labelPosition=right;points=[];portConstraint=eastwest;labelBackgroundColor=none;rounded=0;" parent="b35trlS7HM2n4KFwWIdp-0" vertex="1">
          <mxGeometry y="50" width="220" height="8" as="geometry" />
        </mxCell>
        <mxCell id="b35trlS7HM2n4KFwWIdp-3" value="+ update_log_key(str, srt): void&lt;br&gt;+ remove_log_key(str): void&lt;br&gt;+ append_log_file(str): void" style="text;strokeColor=none;fillColor=none;align=left;verticalAlign=top;spacingLeft=4;spacingRight=4;overflow=hidden;rotatable=0;points=[[0,0.5],[1,0.5]];portConstraint=eastwest;whiteSpace=wrap;html=1;labelBackgroundColor=none;rounded=0;" parent="b35trlS7HM2n4KFwWIdp-0" vertex="1">
          <mxGeometry y="58" width="220" height="62" as="geometry" />
        </mxCell>
        <mxCell id="b35trlS7HM2n4KFwWIdp-4" value="3D_UMSFCM" style="swimlane;fontStyle=1;align=center;verticalAlign=top;childLayout=stackLayout;horizontal=1;startSize=26;horizontalStack=0;resizeParent=1;resizeParentMax=0;resizeLast=0;collapsible=1;marginBottom=0;whiteSpace=wrap;html=1;labelBackgroundColor=none;rounded=0;" parent="WIyWlLk6GJQsqaUBKTNV-1" vertex="1">
          <mxGeometry x="400" y="112" width="420" height="320" as="geometry" />
        </mxCell>
        <mxCell id="b35trlS7HM2n4KFwWIdp-5" value="+ mri_data: numpy.array&lt;br&gt;+ clusters_data: numpy.array&lt;br&gt;+ segmentation: numpy.array&lt;br&gt;+ steps: Enum&lt;br&gt;+ current_step: int" style="text;strokeColor=none;fillColor=none;align=left;verticalAlign=top;spacingLeft=4;spacingRight=4;overflow=hidden;rotatable=0;points=[[0,0.5],[1,0.5]];portConstraint=eastwest;whiteSpace=wrap;html=1;labelBackgroundColor=none;rounded=0;" parent="b35trlS7HM2n4KFwWIdp-4" vertex="1">
          <mxGeometry y="26" width="420" height="84" as="geometry" />
        </mxCell>
        <mxCell id="b35trlS7HM2n4KFwWIdp-6" value="" style="line;strokeWidth=1;fillColor=none;align=left;verticalAlign=middle;spacingTop=-1;spacingLeft=3;spacingRight=3;rotatable=0;labelPosition=right;points=[];portConstraint=eastwest;labelBackgroundColor=none;rounded=0;" parent="b35trlS7HM2n4KFwWIdp-4" vertex="1">
          <mxGeometry y="110" width="420" height="8" as="geometry" />
        </mxCell>
        <mxCell id="b35trlS7HM2n4KFwWIdp-7" value="+ import_mri_data(str): numpy.array&lt;br&gt;+ start_process(numpy.array, numpy.array, int, int, int, float, float): numpy.array, numpy.array&lt;br&gt;+ global_membership(numpy.array, numpy.array, int): numpy.array&lt;br&gt;+ local_membership(numpy.array, numpy.array): numpy.array, numpy.array&lt;br&gt;+ combined_membership(numpy.array, numpy.array, int, int): numpy.array&lt;br&gt;+ objective_function(numpy.array, numpy.array, float, numpy.array, numpy.array): float&lt;br&gt;+ compute_new_clusters(numpy.array, numpy.array, int): numpy.array&lt;br&gt;+ histogram_peak_analysis(numpy.array, numpy.array, int): numpy.array&lt;br&gt;+ subsegment(numpy.array, numpy.array): numpy.array&lt;br&gt;+ save_progress(str): void&lt;br style=&quot;border-color: var(--border-color);&quot;&gt;+ load_progress(str): void" style="text;strokeColor=none;fillColor=none;align=left;verticalAlign=top;spacingLeft=4;spacingRight=4;overflow=hidden;rotatable=0;points=[[0,0.5],[1,0.5]];portConstraint=eastwest;whiteSpace=wrap;html=1;labelBackgroundColor=none;rounded=0;" parent="b35trlS7HM2n4KFwWIdp-4" vertex="1">
          <mxGeometry y="118" width="420" height="202" as="geometry" />
        </mxCell>
        <mxCell id="bEcV7l3nRryRENPBC0jb-11" style="edgeStyle=orthogonalEdgeStyle;rounded=0;orthogonalLoop=1;jettySize=auto;html=1;entryX=0;entryY=0.5;entryDx=0;entryDy=0;endArrow=none;endFill=0;labelBackgroundColor=none;fontColor=default;" parent="WIyWlLk6GJQsqaUBKTNV-1" source="b35trlS7HM2n4KFwWIdp-8" target="b35trlS7HM2n4KFwWIdp-5" edge="1">
          <mxGeometry relative="1" as="geometry" />
        </mxCell>
        <mxCell id="bEcV7l3nRryRENPBC0jb-13" value="configuration" style="edgeLabel;html=1;align=center;verticalAlign=middle;resizable=0;points=[];labelBackgroundColor=none;rounded=0;" parent="bEcV7l3nRryRENPBC0jb-11" vertex="1" connectable="0">
          <mxGeometry x="-0.4314" y="1" relative="1" as="geometry">
            <mxPoint x="-3" y="12" as="offset" />
          </mxGeometry>
        </mxCell>
        <mxCell id="b35trlS7HM2n4KFwWIdp-8" value="Configuration" style="swimlane;fontStyle=1;align=center;verticalAlign=top;childLayout=stackLayout;horizontal=1;startSize=26;horizontalStack=0;resizeParent=1;resizeParentMax=0;resizeLast=0;collapsible=1;marginBottom=0;whiteSpace=wrap;html=1;labelBackgroundColor=none;rounded=0;" parent="WIyWlLk6GJQsqaUBKTNV-1" vertex="1">
          <mxGeometry x="40" y="80" width="220" height="200" as="geometry" />
        </mxCell>
        <mxCell id="b35trlS7HM2n4KFwWIdp-9" value="+ nb_clusters: int&lt;br&gt;+ q: float&lt;br&gt;+ p: float&lt;br&gt;+ m: float&lt;br&gt;+ tau: float&lt;br&gt;+ th: float&lt;br&gt;+ mri_file_path: str&lt;br&gt;+ output_dir_path: str" style="text;strokeColor=none;fillColor=none;align=left;verticalAlign=top;spacingLeft=4;spacingRight=4;overflow=hidden;rotatable=0;points=[[0,0.5],[1,0.5]];portConstraint=eastwest;whiteSpace=wrap;html=1;labelBackgroundColor=none;rounded=0;" parent="b35trlS7HM2n4KFwWIdp-8" vertex="1">
          <mxGeometry y="26" width="220" height="124" as="geometry" />
        </mxCell>
        <mxCell id="b35trlS7HM2n4KFwWIdp-10" value="" style="line;strokeWidth=1;fillColor=none;align=left;verticalAlign=middle;spacingTop=-1;spacingLeft=3;spacingRight=3;rotatable=0;labelPosition=right;points=[];portConstraint=eastwest;labelBackgroundColor=none;rounded=0;" parent="b35trlS7HM2n4KFwWIdp-8" vertex="1">
          <mxGeometry y="150" width="220" height="8" as="geometry" />
        </mxCell>
        <mxCell id="b35trlS7HM2n4KFwWIdp-11" value="+ load_settings(str): void&lt;br&gt;+ setup(void): void" style="text;strokeColor=none;fillColor=none;align=left;verticalAlign=top;spacingLeft=4;spacingRight=4;overflow=hidden;rotatable=0;points=[[0,0.5],[1,0.5]];portConstraint=eastwest;whiteSpace=wrap;html=1;labelBackgroundColor=none;rounded=0;" parent="b35trlS7HM2n4KFwWIdp-8" vertex="1">
          <mxGeometry y="158" width="220" height="42" as="geometry" />
        </mxCell>
      </root>
    </mxGraphModel>
  </diagram>
</mxfile>
